<?xml version="1.0" encoding="utf-8"?>
<svg xmlns="http://www.w3.org/2000/svg" viewBox="0 0 500 500">
  <g transform="matrix(0.224298, 0, 0, -0.224298, -87.713356, 604.727417)" fill="#000000" stroke="none" style="">
    <path d="M1343 2676 c-120 -29 -263 -127 -308 -210 -13 -24 -40 -48 -84 -74 -91 -52 -250 -207 -320 -312 -117 -176 -165 -341 -164 -570 1 -181 27 -292 107 -455 138 -279 373 -471 684 -557 112 -31 382 -32 494 0 253 70 474 228 614 438 203 304 235 690 84 1011 -83 177 -237 350 -394 443 -41 25 -78 53 -82 64 -3 10 -34 46 -68 80 -68 68 -159 117 -259 141 -75 18 -232 18 -304 1z m282 -51 c97 -21 171 -59 236 -124 67 -68 99 -131 106 -211 13 -137 -67 -221 -253 -267 -96 -23 -332 -23 -435 0 -94 22 -174 68 -214 125 -28 40 -30 50 -30 125 1 69 5 90 28 134 62 119 165 193 312 223 65 13 175 11 250 -5z m-647 -312 c-20 -75 12 -173 78 -237 82 -80 202 -116 404 -123 119 -4 162 -1 241 15 202 42 305 127 323 267 4 28 2 65 -3 83 -5 17 -6 32 -2 32 16 0 139 -97 192 -151 118 -119 206 -274 251 -439 31 -118 32 -366 0 -482 -50 -184 -134 -330 -267 -464 -390 -395 -1014 -388 -1397 14 -122 128 -204 273 -250 442 -20 73 -23 108 -23 255 0 147 3 180 23 249 46 159 121 290 235 413 55 59 181 162 199 163 3 0 2 -16 -4 -37z" style="fill: rgb(196, 154, 108);"/>
    <path d="M1664 2579 c-8 -14 11 -33 25 -25 6 4 11 11 11 16 0 13 -29 20 -36 9z" style="fill: rgb(196, 154, 108);"/>
    <path d="M1440 2550 c0 -15 5 -20 18 -18 9 2 17 10 17 18 0 8 -8 16 -17 18 -13 2 -18 -3 -18 -18z" style="fill: rgb(196, 154, 108);"/>
    <path d="M1570 2540 c-18 -11 -4 -42 17 -38 10 2 19 10 21 19 4 19 -19 31 -38 19z" style="fill: rgb(196, 154, 108);"/>
    <path d="M1345 2514 c-5 -1 -27 -5 -47 -9 -57 -9 -46 -22 25 -27 76 -6 116 -26 183 -88 60 -57 117 -88 169 -92 45 -4 59 16 19 26 -36 9 -76 38 -145 102 -31 29 -71 59 -90 67 -36 15 -97 26 -114 21z" style="fill: rgb(196, 154, 108);"/>
    <path d="M1704 2489 c-3 -6 -2 -15 4 -21 13 -13 32 -2 32 18 0 16 -26 19 -36 3z" style="fill: rgb(196, 154, 108);"/>
    <path d="M1156 2461 c-7 -11 18 -33 27 -24 4 3 7 12 7 20 0 15 -26 18 -34 4z" style="fill: rgb(196, 154, 108);"/>
    <path d="M1753 2383 c-21 -8 -15 -43 6 -43 11 0 23 5 27 11 8 14 -17 38 -33 32z" style="fill: rgb(196, 154, 108);"/>
    <path d="M1171 2366 c-12 -14 -5 -26 16 -26 15 0 18 26 4 34 -5 3 -14 0 -20 -8z" style="fill: rgb(196, 154, 108);"/>
    <path d="M1435 2350 c-9 -15 14 -40 31 -33 22 8 18 43 -5 43 -11 0 -23 -5 -26 -10z" style="fill: rgb(196, 154, 108);"/>
    <path d="M1938 2290 c-3 -8 -12 -36 -18 -62 -7 -26 -23 -62 -36 -79 -29 -40 -23 -51 11 -19 32 30 57 98 53 141 -2 20 -6 28 -10 19z" style="fill: rgb(196, 154, 108);"/>
    <path d="M1060 2223 c0 -91 131 -180 281 -190 98 -7 105 9 11 25 -104 17 -181 51 -229 99 -24 23 -43 51 -43 62 0 11 -4 23 -10 26 -6 4 -10 -6 -10 -22z" style="fill: rgb(196, 154, 108);"/>
    <path d="M1863 2208 c-12 -26 -43 -70 -69 -98 -50 -54 -48 -64 7 -27 37 25 93 124 87 153 -3 14 -10 6 -25 -28z" style="fill: rgb(196, 154, 108);"/>
    <path d="M1783 2180 c-31 -46 -123 -130 -144 -130 -6 0 -8 -4 -4 -9 16 -26 125 49 163 112 24 39 36 77 25 77 -4 0 -23 -23 -40 -50z" style="fill: rgb(196, 154, 108);"/>
    <path d="M1670 2130 c-25 -22 -69 -50 -97 -62 -77 -32 -70 -50 9 -28 51 15 178 132 141 130 -5 -1 -28 -19 -53 -40z" style="fill: rgb(196, 154, 108);"/>
    <path d="M2161 1931 c-28 -38 -27 -41 12 -41 23 0 41 8 60 28 15 15 27 31 27 35 0 4 -18 7 -39 7 -32 0 -43 -5 -60 -29z" style="fill: rgb(196, 154, 108);"/>
    <path d="M 684 1855 C 681 1849 681 1779 682 1700 L 685 1555 L 772 1552 C 851 1549 860 1551 886 1573 C 925 1606 925 1663 888 1695 C 861 1718 861 1718 881 1736 C 909 1761 903 1817 870 1841 C 841 1862 690 1873 684 1855 Z M 824 1784 C 833 1762 813 1740 784 1740 C 764 1740 760 1745 760 1770 C 760 1796 763 1800 789 1800 C 806 1800 820 1794 824 1784 Z M 835 1658 C 844 1632 823 1610 789 1610 C 763 1610 760 1613 760 1643 C 760 1685 763 1688 800 1682 C 818 1680 832 1670 835 1658 Z" style="fill: rgb(196, 154, 108);"/>
    <path d="M1020 1853 c-51 -26 -75 -75 -74 -148 1 -103 46 -155 134 -155 89 0 132 51 132 156 -1 99 -39 151 -119 160 -25 3 -50 -1 -73 -13z m98 -66 c19 -22 25 -93 12 -131 -13 -40 -45 -55 -78 -37 -35 19 -42 130 -10 168 14 17 63 17 76 0z" style="fill: rgb(196, 154, 108);"/>
    <path d="M1330 1852 c-50 -25 -75 -74 -75 -147 1 -71 23 -118 65 -140 35 -18 101 -20 119 -2 11 10 14 10 18 0 3 -7 16 -13 29 -13 23 0 24 2 24 85 l0 85 -61 0 c-60 0 -60 0 -57 -27 2 -21 9 -29 31 -33 26 -5 27 -6 12 -27 -37 -53 -105 -6 -105 72 0 48 30 95 60 95 19 0 45 -21 52 -40 2 -7 13 -7 36 1 27 9 32 15 26 33 -10 31 -25 48 -61 63 -43 17 -71 16 -113 -5z" style="fill: rgb(196, 154, 108);"/>
    <path d="M1630 1852 c-51 -26 -75 -74 -74 -149 3 -104 47 -153 138 -153 78 0 126 59 126 155 0 72 -27 127 -74 149 -44 21 -72 20 -116 -2z m84 -58 c21 -8 38 -76 30 -118 -8 -46 -36 -70 -69 -62 -33 8 -48 47 -42 108 6 69 31 91 81 72z" style="fill: rgb(196, 154, 108);"/>
    <path d="M 1842 1828 C 1845 1799 1848 1796 1880 1795 L 1915 1795 L 1915 1675 L 1915 1555 L 1953 1552 L 1990 1549 L 1990 1675 L 1990 1802 L 2028 1798 C 2063 1795 2065 1796 2068 1828 L 2071 1860 L 1955 1860 L 1839 1860 L 1842 1828 Z" style="fill: rgb(196, 154, 108);"/>
    <path d="M 2137 1853 C 2132 1843 2050 1565 2050 1556 C 2050 1553 2066 1550 2086 1550 C 2116 1550 2123 1554 2131 1579 C 2141 1607 2145 1609 2188 1607 C 2228 1605 2235 1602 2240 1580 C 2245 1560 2253 1554 2283 1552 C 2308 1550 2320 1553 2320 1562 C 2320 1569 2301 1639 2279 1718 L 2237 1860 L 2189 1860 C 2163 1860 2139 1857 2137 1853 Z M 2203 1728 C 2206 1710 2211 1687 2215 1678 C 2221 1663 2217 1660 2191 1660 C 2156 1660 2155 1662 2172 1724 C 2185 1775 2195 1776 2203 1728 Z" style="fill: rgb(196, 154, 108);"/>
    <path d="M 840 1326 L 840 1170 L 920 1170 C 1014 1170 1051 1185 1070 1230 C 1080 1254 1080 1266 1070 1290 C 1063 1307 1055 1320 1051 1320 C 1048 1320 1039 1324 1031 1329 C 1020 1336 1022 1342 1039 1359 C 1065 1385 1066 1420 1041 1451 C 1024 1472 1012 1475 931 1478 L 840 1482 L 840 1326 Z M 980 1405 C 997 1385 977 1360 944 1360 C 924 1360 920 1365 920 1390 C 920 1415 924 1420 944 1420 C 957 1420 973 1413 980 1405 Z M 994 1277 C 1003 1262 1001 1256 986 1244 C 975 1236 956 1230 943 1230 C 923 1230 920 1235 920 1269 C 920 1307 920 1307 952 1301 C 969 1297 988 1287 994 1277 Z" style="fill: rgb(196, 154, 108);"/>
    <path d="M 1129 1476 C 1127 1474 1125 1405 1126 1323 L 1127 1175 L 1221 1175 L 1315 1175 L 1315 1205 C 1315 1235 1314 1235 1258 1238 C 1204 1241 1200 1243 1200 1265 C 1200 1286 1205 1289 1248 1292 C 1293 1295 1295 1296 1295 1325 C 1295 1354 1293 1355 1250 1355 C 1209 1355 1205 1357 1202 1382 C 1199 1408 1200 1409 1257 1412 C 1314 1415 1315 1415 1315 1445 L 1315 1475 L 1225 1478 C 1175 1479 1132 1479 1129 1476 Z" style="fill: rgb(196, 154, 108);"/>
    <path d="M 1392 1338 C 1369 1259 1350 1189 1350 1182 C 1350 1175 1364 1170 1384 1170 C 1413 1170 1420 1175 1429 1200 C 1438 1227 1443 1230 1480 1230 C 1517 1230 1522 1227 1531 1200 C 1541 1174 1547 1170 1581 1170 C 1602 1170 1620 1173 1620 1178 C 1619 1182 1600 1250 1576 1330 L 1532 1475 L 1483 1478 L 1434 1481 L 1392 1338 Z M 1493 1358 C 1497 1340 1502 1315 1506 1303 C 1512 1282 1509 1280 1480 1280 C 1455 1280 1449 1283 1454 1296 C 1457 1305 1463 1329 1466 1351 C 1474 1398 1485 1401 1493 1358 Z" style="fill: rgb(196, 154, 108);"/>
    <path d="M 1660 1325 L 1660 1170 L 1695 1170 L 1729 1170 L 1732 1257 L 1735 1345 L 1784 1257 C 1832 1171 1833 1170 1872 1170 L 1911 1170 L 1908 1323 L 1905 1475 L 1868 1478 L 1830 1481 L 1830 1393 L 1830 1305 L 1783 1393 C 1737 1479 1736 1480 1698 1480 L 1660 1480 L 1660 1325 Z" style="fill: rgb(196, 154, 108);"/>
    <path d="M1986 1454 c-51 -52 -27 -123 56 -159 24 -11 46 -24 50 -29 12 -18 -4 -36 -33 -36 -22 0 -32 6 -39 25 -9 25 -11 25 -40 10 -37 -19 -38 -29 -1 -66 26 -25 37 -29 86 -29 72 0 105 28 105 89 0 32 -6 44 -31 65 -17 14 -36 26 -43 26 -23 0 -65 40 -59 55 8 22 48 18 64 -6 13 -18 17 -19 42 -8 34 15 34 29 1 63 -22 21 -36 26 -79 26 -43 0 -57 -5 -79 -26z" style="fill: rgb(196, 154, 108);"/>
    <path d="M1623 1065 c-38 -16 -123 -92 -123 -110 0 -6 9 -20 19 -29 18 -17 27 -33 51 -100 l11 -30 24 52 c13 29 56 86 95 127 59 63 70 78 60 90 -16 19 -94 19 -137 0z m70 -48 c-10 -12 -27 -31 -38 -42 -11 -11 -31 -35 -44 -53 -21 -31 -25 -32 -41 -17 -42 38 12 117 92 134 44 10 53 4 31 -22z" style="fill: rgb(196, 154, 108);"/>
    <path d="M1261 1041 c-25 -16 -3 -58 84 -151 90 -98 135 -174 135 -227 0 -41 11 -42 44 -3 44 53 45 118 4 207 -27 57 -92 130 -137 152 -45 23 -111 34 -130 22z m113 -54 c48 -24 92 -68 117 -117 28 -52 35 -87 30 -145 -1 -19 -3 -18 -21 5 -11 14 -20 30 -20 37 0 13 -85 117 -141 172 -47 46 -52 75 -11 65 15 -4 36 -11 46 -17z" style="fill: rgb(196, 154, 108);"/>
    <path d="M1765 1014 c-9 -15 -41 -53 -71 -85 -56 -62 -97 -132 -109 -189 -4 -19 -13 -45 -21 -58 -8 -12 -12 -27 -9 -32 11 -18 85 -10 133 14 121 61 192 195 163 303 -20 73 -56 93 -86 47z m45 -50 c24 -63 -5 -163 -62 -217 -34 -31 -99 -67 -123 -67 -23 0 -14 55 19 125 25 50 131 182 149 184 4 1 12 -11 17 -25z" style="fill: rgb(196, 154, 108);"/>
    <path d="M1171 994 c-60 -76 -18 -243 80 -317 123 -91 224 -89 203 6 -11 53 -32 86 -111 169 -41 44 -84 100 -96 124 -24 51 -46 56 -76 18z m70 -66 c16 -24 52 -65 78 -93 67 -70 101 -123 101 -158 0 -29 -1 -29 -41 -23 -42 7 -103 40 -130 72 -54 63 -83 164 -64 224 9 30 21 25 56 -22z" style="fill: rgb(196, 154, 108);"/>
  </g>
</svg>